<?xml version="1.0" encoding="utf-8"?>
<svg viewBox="0 0 512 341.3" width="512" height="341.3" style="enable-background:new 0 0 512 512;" xmlns="http://www.w3.org/2000/svg">
  <rect style="fill:#F0F0F0;" width="512" height="341.337"/>
  <path d="M 315.424 144.551 C 315.424 108.455 286.163 79.194 250.067 79.194 C 223.432 79.194 200.532 95.134 190.352 117.99 L 182.29 147.213 L 189.711 154.634 L 174.871 184.316 L 189.711 191.737 L 182.29 199.158 L 182.29 206.579 L 189.711 214 L 189.711 228.84 L 197.132 236.261 L 219.393 228.84 C 219.393 228.84 219.393 236.261 226.814 243.68 C 234.235 251.1 241.655 265.942 241.655 265.942 C 241.655 265.942 263.916 273.363 278.756 251.102 C 293.596 228.841 308.438 221.42 308.438 221.42 L 294.133 192.81 C 307.213 180.859 315.424 163.667 315.424 144.551 Z"/>
  <path style="fill:#ACABB1;" d="M 320.751 169.545 C 350.903 164.458 355.927 105.415 355.927 105.415 L 314.374 105.415 C 335.892 157.357 313.37 160.851 313.37 160.851 C 310.318 158.581 201.121 106.851 197.658 105.535 C 196.824 106.651 193.755 109.582 190.023 118.709 C 186.291 127.836 185.374 136.047 185.374 136.047 C 187.123 137.186 303.092 177.68 306.157 178.018 C 312.24 181.996 319.726 193.889 315.542 229.155 L 355.538 217.882 C 355.536 217.882 341.963 181.773 320.751 169.545 Z"/>
</svg>