<?xml version="1.0" encoding="utf-8"?>
<svg viewBox="0 0 512 341.3" width="512" height="341.3" style="enable-background:new 0 0 512 512;" xmlns="http://www.w3.org/2000/svg">
  <rect y="0.003" style="fill:#D80027;" width="512" height="341.337"/>
  <polygon style="fill:#496E2D;" points="301.255 170.666 512 30.169 512 0 466.745 0 256 140.496 45.255 0 0 0 0 30.169 210.745 170.666 0 311.163 0 341.332 45.255 341.332 256 200.836 466.745 341.332 512 341.332 512 311.163"/>
  <polygon style="fill:#F0F0F0;" points="278.261 148.405 278.261 116.924 278.261 0 233.739 0 233.739 116.924 233.74 148.405 233.74 148.405 202.258 148.405 0 148.405 0 192.927 202.258 192.927 233.739 192.927 233.739 224.408 233.739 341.332 278.261 341.332 278.261 224.409 278.261 192.928 278.261 192.927 309.743 192.927 512 192.927 512 148.405 309.742 148.405 278.262 148.405"/>
</svg>