<?xml version="1.0" encoding="utf-8"?>
<svg viewBox="0 0 512 384.0" xmlns="http://www.w3.org/2000/svg">
  <rect y="0" style="fill:#D80027;" width="512" height="384.0" />
  <polygon style="fill:#496E2D;"
    points="301.255 192.0 512 33.9 512 0 466.745 0 256 158.1 45.255 0 0 0 0 33.9 210.745 192.0 0 350.1 0 384.0 45.255 384.0 256 225.9 466.745 384.0 512 384.0 512 350.1" />
  <polygon style="fill:#F0F0F0;"
    points="278.261 167.0 278.261 116.924 278.261 0 233.739 0 233.739 116.924 233.74 167.0 233.74 167.0 202.258 167.0 0 167.0 0 217.0 202.258 217.0 233.739 217.0 233.739 224.408 233.739 384.0 278.261 384.0 278.261 224.409 278.261 217.0 278.261 217.0 309.743 217.0 512 217.0 512 167.0 309.742 167.0 278.262 167.0" />
</svg>