<svg xmlns="http://www.w3.org/2000/svg" id="flag-icon-css-us" viewBox="0 0 512 512">
  <g fill-rule="evenodd">
    <g stroke-width="1pt">
      <path fill="#bd3d44" d="M0 0h512v39.38H0zm0 78.77h512v39.38H0zm0 78.77h512v39.38H0zm0 78.77h512v39.38H0zm0 78.77h512v39.38H0zm0 78.77h512v39.38H0zm0 78.77h512v39.38H0z" />
      <path fill="#fff" d="M0 39.38h512v39.38H0zm0 78.77h512v39.38H0zm0 78.77h512v39.38H0zm0 78.77h512v39.38H0zm0 78.77h512v39.38H0zm0 78.77h512v39.38H0z" />
    </g>
  </g>
  <path fill="#192f5d" d="M0 0h256v275H0z"/>
    <path fill="#fff" d="M8.2 3l1 2.8H12L9.7 7.5l.9 2.7-2.4-1.7L6 10.2l.9-2.7-2.4-1.7h3zm16.5 0l.9 2.8h2.9l-2.4 1.7 1 2.7-2.4-1.7-2.4 1.7 1-2.7-2.4-1.7h2.9zm16.5 0l.9 2.8H45l-2.4 1.7 1 2.7-2.4-1.7-2.4 1.7 1-2.7-2.4-1.7h2.9zm16.4 0l1 2.8h2.8l-2.3 1.7.9 2.7-2.4-1.7-2.3 1.7.9-2.7-2.4-1.7h3zm-41.1 7l.9 2.8h2.9l-2.4 1.7 1 2.7-2.4-1.7-2.4 1.7 1-2.7-2.4-1.7h2.9zm16.4 0l1 2.8h2.8l-2.3 1.7.9 2.7-2.4-1.7-2.3 1.7.9-2.7-2.4-1.7h3zm16.5 0l.9 2.8h2.9l-2.4 1.7 1 2.7-2.4-1.7-2.4 1.7 1-2.7-2.4-1.7h2.9zm-41 7l.8 2.8h3l-2.4 1.7.9 2.7-2.4-1.7L6 24.2l.9-2.7-2.4-1.7h3zm16.4 0l.9 2.8h2.9l-2.3 1.7.9 2.7-2.4-1.7-2.3 1.7.9-2.7-2.4-1.7h2.9zm16.5 0l.9 2.8H45l-2.4 1.7 1 2.7-2.4-1.7-2.4 1.7 1-2.7-2.4-1.7h2.9zm16.4 0l1 2.8h2.8l-2.3 1.7.9 2.7-2.4-1.7-2.3 1.7.9-2.7-2.4-1.7h3zm-41 7l.9 2.8h2.9l-2.4 1.7 1 2.7-2.4-1.7-2.4 1.7 1-2.7-2.4-1.7h2.9zm16.4 0l1 2.8h2.8l-2.3 1.7.9 2.7-2.4-1.7-2.3 1.7.9-2.7-2.4-1.7h3zm16.5 0l.9 2.8h2.9l-2.3 1.7.9 2.7-2.4-1.7-2.3 1.7.9-2.7-2.4-1.7h2.9zm-41 7l.8 2.8h3l-2.4 1.7.9 2.7-2.4-1.7L6 38.2l.9-2.7-2.4-1.7h3zm16.4 0l.9 2.8h2.9l-2.3 1.7.9 2.7-2.4-1.7-2.3 1.7.9-2.7-2.4-1.7h2.9zm16.5 0l.9 2.8H45l-2.4 1.7 1 2.7-2.4-1.7-2.4 1.7 1-2.7-2.4-1.7h2.9zm16.4 0l1 2.8h2.8l-2.3 1.7.9 2.7-2.4-1.7-2.3 1.7.9-2.7-2.4-1.7h3zm-41 7l.9 2.8h2.9l-2.4 1.7 1 2.7-2.4-1.7-2.4 1.7 1-2.7-2.4-1.7h2.9zm16.4 0l1 2.8h2.8l-2.3 1.7.9 2.7-2.4-1.7-2.3 1.7.9-2.7-2.4-1.7h3zm16.5 0l.9 2.8h2.9l-2.3 1.7.9 2.7-2.4-1.7-2.3 1.7.9-2.7-2.4-1.7h2.9zm-41 7l.8 2.8h3l-2.4 1.7.9 2.7-2.4-1.7L6 52.2l.9-2.7-2.4-1.7h3zm16.4 0l.9 2.8h2.9l-2.3 1.7.9 2.7-2.4-1.7-2.3 1.7.9-2.7-2.4-1.7h2.9zm16.5 0l.9 2.8H45l-2.4 1.7 1 2.7-2.4-1.7-2.4 1.7 1-2.7-2.4-1.7h2.9zm16.4 0l1 2.8h2.8l-2.3 1.7.9 2.7-2.4-1.7-2.3 1.7.9-2.7-2.4-1.7h3zm-41 7l.9 2.8h2.9l-2.4 1.7 1 2.7-2.4-1.7-2.4 1.7 1-2.7-2.4-1.7h2.9zm16.4 0l1 2.8h2.8l-2.3 1.7.9 2.7-2.4-1.7-2.3 1.7.9-2.7-2.4-1.7h3zm16.5 0l.9 2.8h2.9l-2.3 1.7.9 2.7-2.4-1.7-2.3 1.7.9-2.7-2.4-1.7h2.9zm-41 7l.8 2.8h3l-2.4 1.7.9 2.7-2.4-1.7L6 66.2l.9-2.7-2.4-1.7h3zm16.4 0l.9 2.8h2.9l-2.3 1.7.9 2.7-2.4-1.7-2.3 1.7.9-2.7-2.4-1.7h2.9zm16.5 0l.9 2.8H45l-2.4 1.7 1 2.7-2.4-1.7-2.4 1.7 1-2.7-2.4-1.7h2.9zm16.4 0l1 2.8h2.8l-2.3 1.7.9 2.7-2.4-1.7-2.3 1.7.9-2.7-2.4-1.7h3z" transform="scale(3.9385)"/>
</svg>
