<?xml version="1.0" encoding="utf-8"?>
<svg viewBox="0 0 512 384" style="enable-background:new 0 0 512 512;" xmlns="http://www.w3.org/2000/svg">
  <rect y="0" style="fill:#F0F0F0;" width="512" height="384" />
  <rect y="48" style="fill:#D80027;" width="512" height="48" />
  <rect y="96" style="fill:#0052B4;" width="512" height="48" />
  <rect y="192" style="fill:#D80027;" width="512" height="48" />
  <rect y="240" style="fill:#0052B4;" width="512" height="48" />
  <rect y="336" style="fill:#D80027;" width="512" height="48" />
  <rect y="0.002" style="fill:#F0F0F0;" width="256" height="192" />
   <g transform="scale(1 1.125)">
  <polygon style="fill:#D80027;"
    points="144 0 112 0 112 69.334 0 69.334 0 101.334 112 101.334 112 170.667 144 170.667 144 101.334 256 101.334 256 69.334 144 69.334" />
  <g transform="matrix(1, 0, 0, 1, 0, -85.335968)">
    <polygon style="fill:#0052B4;" points="196.892,200.351 256,233.188 256,200.351 &#9;" />
    <polygon style="fill:#0052B4;" points="155.826,200.351 256,256.003 256,240.266 184.153,200.351 &#9;" />
    <polygon style="fill:#0052B4;" points="229.317,256.003 155.826,215.171 155.826,256.003 &#9;" />
  </g>
  <polygon style="fill:#F0F0F0;" points="155.826 115.015 256 170.667 256 154.93 184.153 115.015" />
  <polygon style="fill:#D80027;" points="155.826 115.015 256 170.667 256 154.93 184.153 115.015" />
  <g transform="matrix(1, 0, 0, 1, 0, -85.335968)">
    <polygon style="fill:#0052B4;" points="45.171,200.35 0,225.445 0,200.35 &#9;" />
    <polygon style="fill:#0052B4;" points="100.174,207.427 100.174,256.002 12.745,256.002 &#9;" />
  </g>
  <polygon style="fill:#D80027;" points="71.846 115.015 0 154.93 0 170.667 0 170.667 100.174 115.015" />
  <g transform="matrix(1, 0, 0, 1, 0, -85.335968)">
    <polygon style="fill:#0052B4;" points="59.108,140.988 0,108.151 0,140.988 &#9;" />
    <polygon style="fill:#0052B4;" points="100.174,140.988 0,85.336 0,101.073 71.847,140.988 &#9;" />
    <polygon style="fill:#0052B4;" points="26.683,85.336 100.174,126.169 100.174,85.336 &#9;" />
  </g>
  <polygon style="fill:#F0F0F0;" points="100.174 55.652 0 0 0 15.737 71.847 55.652" />
  <polygon style="fill:#D80027;" points="100.174 55.652 0 0 0 15.737 71.847 55.652" />
  <g transform="matrix(1, 0, 0, 1, 0, -85.335968)">
    <polygon style="fill:#0052B4;" points="210.829,140.989 256,115.895 256,140.989 &#9;" />
    <polygon style="fill:#0052B4;" points="155.826,133.912 155.826,85.337 243.255,85.337 &#9;" />
  </g>
  <polygon style="fill:#D80027;" points="184.154 55.652 256 15.738 256 0 256 0 155.826 55.652" />
</g>
</svg>