<svg width="341" height="341" xmlns="http://www.w3.org/2000/svg">

 <g>
  <title>Layer 1</title>
  <g id="surface1">
   <rect x="-27" y="0" id="svg_1" fill="rgb(33.333333%,61.960784%,88.627451%)" height="341" width="511"/>
   <path id="svg_2" fill-rule="nonzero" fill="rgb(100%,100%,100%)" d="m228.5,170.5c0,47.08203 -38.12891,85.25 -85.16797,85.25c-47.03515,0 -85.16406,-38.16797 -85.16406,-85.25c0,-47.08203 38.12891,-85.25 85.16406,-85.25c47.03906,0 85.16797,38.16797 85.16797,85.25zm0,0"/>
   <path id="svg_3" fill-rule="nonzero" fill="rgb(33.333333%,61.960784%,88.627451%)" d="m232.75781,170.5c0,37.66406 -30.5039,68.19922 -68.13281,68.19922c-37.62891,0 -68.13281,-30.53516 -68.13281,-68.19922c0,-37.66406 30.5039,-68.19922 68.13281,-68.19922c37.62891,0 68.13281,30.53516 68.13281,68.19922zm0,0"/>
   <path id="svg_4" fill-rule="nonzero" fill="rgb(100%,100%,100%)" d="m215.30078,170.5l40.4961,13.17188l6.58203,-20.26954l-47.07813,7.09766zm0,0"/>
   <path id="svg_5" fill-rule="nonzero" fill="rgb(100%,100%,100%)" d="m215.30078,170.5l40.4961,-13.17187l6.58203,20.26953l-47.07813,-7.09766zm0,0"/>
   <path id="svg_6" fill-rule="nonzero" fill="rgb(100%,100%,100%)" d="m244.72266,129.96094l0,42.625l21.29297,0l-21.29297,-42.625zm0,0"/>
   <path id="svg_7" fill-rule="nonzero" fill="rgb(100%,100%,100%)" d="m244.72266,129.96094l25.03125,34.48437l-17.22657,12.52735l-7.80468,-47.01172zm0,0"/>
   <path id="svg_8" fill-rule="nonzero" fill="rgb(100%,100%,100%)" d="m244.72266,211.03906l25.03125,-34.48437l-17.22657,-12.52735l-7.80468,47.01172zm0,0"/>
   <path id="svg_9" fill-rule="nonzero" fill="rgb(100%,100%,100%)" d="m244.72266,211.03906l0,-42.625l21.29297,0l-21.29297,42.625zm0,0"/>
   <path id="svg_10" fill-rule="nonzero" fill="rgb(100%,100%,100%)" d="m292.33203,145.44531l-40.5,13.17188l6.58203,20.26953l33.91797,-33.44141zm0,0"/>
   <path id="svg_11" fill-rule="nonzero" fill="rgb(100%,100%,100%)" d="m292.33203,145.44531l-25.02734,34.48438l-17.22656,-12.52735l42.2539,-21.95703zm0,0"/>
   <path id="svg_12" fill-rule="nonzero" fill="rgb(100%,100%,100%)" d="m292.33203,195.55469l-25.02734,-34.48438l-17.22656,12.52735l42.2539,21.95703zm0,0"/>
   <path id="svg_13" fill-rule="nonzero" fill="rgb(100%,100%,100%)" d="m292.33203,195.55469l-40.5,-13.17188l6.58203,-20.26953l33.91797,33.44141zm0,0"/>
  </g>
 </g>
</svg>